# xmcd
#
# Track frame offsets:
#	150
#	9867
#	18622
#	29510
#	40882
#	54817
#	66847
#	78657
#	89592
#	102207
#	113265
#	123075
#	135390
#	149250
#	159890
#	173112
#	186442
#	198575
#
# Disc length: 2934 seconds
#
# Revision: 1
# Processed by: cddbd v1.4PL0 Copyright (c) Steve Scherf et al.
# Submitted via: audiograbber 1.80
#
DISCID=e40b7412
DTITLE=Charlie Rich - Ultimate Collection
DYEAR=1900
DGENRE=
TTITLE0=Lonely Weekends
TTITLE1=Rebound
TTITLE2=Who Will The Next Fool Be?
TTITLE3=Break Up
TTITLE4=Sittin' and Thinkin'
TTITLE5=There's Another Place I Can't Go
TTITLE6=Big Boss Man
TTITLE7=There Won't Be Anymore
TTITLE8=River, Stay Away From My Door
TTITLE9=She Called Me Baby
TTITLE10=Mohair Sam
TTITLE11=I Washed My Hands In Muddy Water
TTITLE12=A Field Of Yellow Daisies
TTITLE13=Everything I do Is Wrong
TTITLE14=You Can Have Her
TTITLE15=Behind Closed Doors
TTITLE16=The Most Beautiful Girl
TTITLE17=Feel Like Going Home
EXTD=
EXTT0=
EXTT1=
EXTT2=
EXTT3=
EXTT4=
EXTT5=
EXTT6=
EXTT7=
EXTT8=
EXTT9=
EXTT10=
EXTT11=
EXTT12=
EXTT13=
EXTT14=
EXTT15=
EXTT16=
EXTT17=
PLAYORDER=
